<?xml version="1.0" standalone="no"?>
<!DOCTYPE svg PUBLIC "-//W3C//DTD SVG 20010904//EN"
 "http://www.w3.org/TR/2001/REC-SVG-20010904/DTD/svg10.dtd">
<svg version="1.0" xmlns="http://www.w3.org/2000/svg"
 width="983.000000pt" height="983.000000pt" viewBox="0 0 983.000000 983.000000"
 preserveAspectRatio="xMidYMid meet">
<metadata>
Created by potrace 1.14, written by Peter Selinger 2001-2017
</metadata>
<g transform="translate(0.000000,983.000000) scale(0.100000,-0.100000)"
fill="#000000" stroke="none">
<path d="M4863 9684 c-49 -23 -94 -69 -121 -121 -9 -17 -21 -21 -54 -22 -366
-1 -635 -110 -692 -278 -9 -26 -16 -63 -16 -83 0 -37 0 -37 -37 -32 -55 6
-305 6 -398 -1 -377 -29 -634 -172 -660 -368 -3 -18 -7 -45 -9 -58 -7 -31 17
-152 45 -226 18 -49 81 -177 95 -194 2 -2 12 13 21 35 14 31 18 67 18 174 0
122 2 139 23 178 34 64 97 122 177 164 72 37 238 84 335 94 30 3 71 7 90 9 19
2 116 4 215 5 l179 1 31 -33 c16 -18 56 -65 88 -103 119 -142 272 -287 327
-312 78 -34 79 -34 101 -12 17 17 20 28 14 57 -5 30 -28 58 -113 142 -111 110
-150 159 -177 223 l-15 37 70 0 c125 0 251 37 350 104 53 36 61 43 124 118 36
43 52 56 63 49 9 -4 31 -5 49 -1 32 7 36 5 68 -39 48 -64 91 -104 160 -145 93
-56 157 -74 289 -83 48 -3 90 -10 93 -14 14 -23 -58 -122 -170 -234 l-120
-120 -1 -50 c0 -49 1 -50 32 -53 57 -6 131 44 258 172 44 45 110 116 145 160
36 43 77 92 91 108 l26 29 169 -1 c199 -1 314 -9 394 -25 14 -3 36 -7 50 -10
14 -2 61 -16 105 -30 149 -47 252 -129 291 -232 18 -46 19 -75 13 -218 -2 -44
3 -72 18 -104 l21 -45 28 55 c90 173 110 240 108 364 -2 98 -24 151 -94 228
-55 60 -164 120 -275 152 -64 18 -67 19 -135 30 -25 4 -54 9 -65 11 -72 14
-283 20 -450 14 -33 -1 -65 -1 -71 -1 -6 1 -11 24 -13 52 -3 76 -51 151 -131
206 -78 53 -163 84 -300 109 -19 4 -44 8 -55 11 -28 5 -181 15 -232 15 -35 0
-43 3 -49 21 -4 12 -18 37 -32 55 -64 85 -190 113 -289 66z m143 -189 c15 -23
15 -27 0 -50 -19 -29 -51 -32 -78 -8 -22 20 -23 32 -2 61 21 30 59 29 80 -3z
m-276 -91 c0 -6 16 -35 35 -64 19 -29 35 -54 35 -56 0 -13 -109 -86 -153 -102
-69 -26 -102 -32 -224 -39 -134 -7 -153 -2 -153 40 0 33 30 92 59 115 65 51
185 92 316 108 27 3 51 7 52 8 8 8 33 1 33 -10z m555 2 c214 -19 364 -104 382
-216 7 -46 -13 -53 -144 -47 -65 3 -130 8 -144 11 -84 19 -175 65 -222 111
l-27 27 24 29 c14 16 30 45 37 63 7 19 15 33 18 32 3 -2 38 -7 76 -10z"/>
<path d="M4625 9332 c-3 -4 -18 -8 -32 -10 -44 -5 -134 -40 -169 -64 -27 -18
-30 -24 -18 -31 25 -14 171 3 239 27 6 2 20 7 33 11 25 8 25 6 13 38 -9 23
-53 42 -66 29z"/>
<path d="M5257 9322 c-31 -33 -21 -49 44 -71 34 -11 65 -18 70 -16 4 3 10 1
13 -3 7 -12 146 -9 148 3 2 16 -93 63 -163 80 -35 9 -71 18 -80 21 -9 2 -23
-4 -32 -14z"/>
<path d="M4925 9094 c-76 -84 -195 -153 -347 -201 -43 -13 -78 -27 -78 -30 0
-15 48 -69 93 -104 l50 -40 36 68 c66 125 198 235 285 237 85 1 208 -93 276
-213 57 -100 49 -96 101 -54 25 21 58 55 73 75 l26 37 -57 16 c-146 41 -283
116 -368 202 l-50 51 -40 -44z"/>
<path d="M4932 8923 c-61 -30 -130 -101 -164 -170 -43 -88 -48 -201 -13 -312
20 -63 21 -72 7 -65 -66 28 -108 37 -182 40 -73 2 -93 -1 -137 -21 -68 -31
-95 -72 -89 -136 7 -86 55 -148 149 -194 39 -18 74 -32 78 -29 4 2 10 21 14
41 14 79 50 113 109 107 38 -4 62 -27 82 -80 16 -43 16 -43 -9 -66 -41 -36
-45 -72 -11 -103 34 -32 149 -67 212 -64 55 2 164 39 193 65 28 25 24 61 -12
96 l-31 31 18 39 c32 72 50 83 117 80 32 -2 64 -47 73 -104 8 -45 23 -48 87
-18 133 63 197 200 133 285 -38 50 -88 69 -186 71 -68 1 -98 -3 -147 -22 -64
-23 -72 -20 -51 19 6 12 16 58 23 102 25 173 -33 305 -174 396 -52 34 -47 33
-89 12z"/>
<path d="M3635 8865 c-30 -8 -155 -28 -157 -26 -7 6 -175 -71 -210 -96 -41
-28 -98 -101 -98 -125 0 -11 16 -15 61 -16 125 -3 271 -102 348 -237 l35 -60
80 0 c71 0 88 -4 142 -32 l62 -32 27 29 c59 61 193 91 305 67 35 -7 36 -6 49
30 7 20 35 56 61 81 l48 45 -51 40 c-49 39 -84 75 -222 227 -38 41 -74 82 -81
90 -11 11 -52 14 -201 15 -104 1 -192 1 -198 0z"/>
<path d="M5939 8860 c-29 -4 -48 -20 -114 -95 -94 -107 -209 -223 -249 -252
l-29 -20 43 -39 c24 -21 52 -58 62 -82 19 -42 20 -43 56 -35 105 22 229 -3
295 -60 l38 -33 61 30 c51 26 73 30 139 31 l79 1 37 63 c83 139 214 227 349
234 29 2 56 6 60 9 10 10 -51 92 -91 123 -78 59 -165 92 -315 121 -43 8 -372
12 -421 4z"/>
<path d="M3190 8461 c-71 -100 -67 -224 11 -351 16 -26 29 -49 29 -51 0 -2
-35 -4 -78 -5 -127 -1 -195 -52 -186 -137 2 -17 11 -41 19 -53 17 -26 105 -71
152 -78 l32 -4 -1 44 c-3 55 11 69 68 68 63 -1 94 -32 92 -91 -2 -33 3 -48 19
-65 55 -54 232 7 264 91 8 20 5 29 -15 50 -14 14 -29 38 -35 53 -8 23 -6 30
17 53 32 33 76 30 127 -9 29 -23 34 -24 54 -10 47 33 68 119 43 180 -36 86
-181 86 -268 -1 -13 -13 -24 -19 -25 -12 0 7 -2 20 -4 29 -2 9 -5 34 -8 55
-16 111 -77 206 -159 247 -72 36 -120 35 -148 -3z"/>
<path d="M6624 8479 c-47 -13 -120 -83 -148 -142 -14 -29 -31 -86 -38 -127 -6
-41 -13 -77 -14 -79 -2 -2 -18 9 -36 24 -118 100 -268 60 -268 -70 0 -42 18
-81 54 -114 l25 -24 31 27 c55 46 106 46 137 0 14 -22 14 -28 2 -52 -8 -15
-22 -36 -31 -46 -34 -38 -19 -71 53 -116 53 -32 126 -48 172 -36 29 7 49 48
45 95 -4 42 29 69 89 75 52 6 75 -13 73 -58 -4 -62 -2 -63 94 -29 96 35 131
113 83 184 -30 44 -88 65 -177 64 -39 0 -70 2 -70 4 0 2 10 18 23 35 68 91 93
233 54 311 -40 82 -72 98 -153 74z"/>
<path d="M4054 8241 c-61 -28 -89 -73 -88 -141 1 -93 58 -150 148 -150 91 0
150 56 153 147 2 66 -25 109 -87 141 -53 27 -73 27 -126 3z"/>
<path d="M5779 8250 c-98 -29 -144 -149 -90 -235 39 -61 146 -85 208 -46 114
72 93 241 -35 279 -44 13 -46 13 -83 2z"/>
<path d="M4578 7915 c-3 -3 -121 -11 -308 -21 -47 -2 -128 -7 -180 -10 -156
-9 -213 -12 -262 -13 -44 -1 -49 -4 -79 -47 l-31 -46 203 6 c681 20 769 23
775 28 2 2 -11 26 -30 53 -24 37 -39 49 -59 50 -15 1 -28 1 -29 0z"/>
<path d="M5267 7864 c-31 -45 -34 -54 -19 -55 24 -1 240 -9 422 -14 85 -3 242
-7 348 -11 l194 -6 -24 41 c-13 23 -30 43 -38 46 -13 4 -85 8 -315 19 -53 3
-262 15 -380 22 -38 2 -88 6 -111 8 -40 4 -42 3 -77 -50z"/>
<path d="M4917 7734 c-1 -1 -110 -4 -242 -8 -291 -9 -377 -13 -475 -20 -41 -3
-111 -8 -155 -11 -104 -7 -186 -13 -260 -21 -33 -3 -67 -6 -75 -6 -8 0 -49 -4
-90 -9 -123 -14 -194 -21 -214 -21 -15 1 -17 -4 -12 -31 8 -44 14 -72 27 -147
33 -179 31 -175 69 -173 44 1 201 13 260 18 76 7 200 15 305 21 55 3 127 7
160 9 371 24 1163 24 1620 0 168 -9 264 -16 290 -20 17 -2 64 -7 105 -10 41
-4 93 -8 115 -11 22 -2 59 -5 82 -7 l42 -3 21 90 c11 50 23 102 25 116 3 14
11 51 19 83 7 31 11 59 7 61 -12 7 -220 34 -401 50 -41 4 -86 9 -100 11 -112
16 -591 37 -908 39 -118 0 -214 0 -215 0z m87 -115 c56 -26 58 -113 4 -147
-74 -47 -162 26 -128 107 18 46 73 63 124 40z m-1229 -72 c45 -64 -11 -160
-83 -142 -62 15 -91 81 -61 136 26 50 111 53 144 6z m2510 11 c52 -46 36 -126
-30 -148 -90 -30 -153 84 -83 150 29 27 80 26 113 -2z m-1895 -3 c17 -9 30
-20 30 -25 0 -17 -61 -41 -93 -37 -83 12 -101 37 -44 62 42 19 71 18 107 0z
m1266 -1 c19 -9 34 -20 34 -24 0 -16 -72 -41 -103 -37 -32 4 -77 26 -77 38 0
10 64 38 88 38 13 1 39 -6 58 -15z"/>
<path d="M4686 7293 c-1 -1 -71 -5 -155 -8 -85 -3 -175 -7 -200 -10 -25 -2
-89 -7 -141 -11 -52 -4 -115 -9 -140 -11 -25 -2 -52 -4 -60 -4 -84 -6 -442
-50 -520 -64 -8 -2 -37 -6 -65 -9 -27 -4 -61 -8 -75 -11 -14 -3 -41 -7 -60
-10 -73 -11 -391 -72 -425 -81 -5 -2 -23 -6 -40 -9 -16 -3 -50 -11 -75 -16
-25 -6 -52 -12 -60 -14 -127 -27 -401 -104 -712 -202 -57 -17 -57 -14 -22
-160 14 -59 27 -115 29 -123 2 -8 9 -37 15 -65 6 -27 14 -59 16 -70 20 -95 52
-226 56 -231 3 -2 106 20 229 50 271 66 547 125 704 150 17 3 73 12 125 21 52
9 106 18 120 20 14 2 45 6 70 10 25 4 57 9 73 11 15 2 46 6 70 9 23 2 58 7 77
9 19 3 58 8 85 11 28 3 66 8 85 11 19 2 62 6 95 9 33 2 80 7 105 10 79 9 281
25 390 30 130 6 551 17 660 17 208 0 668 -15 790 -27 41 -3 102 -8 135 -10 33
-1 85 -6 115 -9 67 -8 134 -14 220 -21 36 -3 76 -8 90 -10 14 -3 45 -7 70 -10
62 -7 98 -12 300 -41 167 -25 188 -28 245 -39 14 -3 35 -7 48 -9 20 -3 104
-19 167 -31 14 -3 50 -10 80 -17 30 -6 60 -12 65 -13 6 0 26 -4 45 -9 235 -54
314 -73 422 -102 70 -19 134 -37 141 -40 12 -4 19 14 43 121 1 6 25 102 54
215 28 113 53 212 55 220 2 8 8 35 14 60 5 24 8 46 6 49 -7 7 -385 117 -468
136 -10 2 -84 20 -165 41 -81 20 -158 38 -172 41 -14 2 -45 9 -70 14 -63 15
-81 18 -115 24 -16 3 -37 8 -45 10 -8 2 -31 7 -50 10 -19 3 -66 12 -105 20
-38 7 -88 16 -110 20 -22 4 -49 9 -60 10 -11 2 -83 13 -160 25 -77 11 -156 23
-175 26 -37 5 -83 11 -165 19 -27 3 -66 8 -85 10 -19 3 -60 7 -90 9 -30 3 -80
7 -110 10 -66 6 -185 15 -260 21 -189 13 -944 28 -954 18z m271 -281 c63 -34
88 -111 56 -171 -27 -52 -64 -74 -122 -74 -57 0 -92 19 -122 66 -36 58 -8 158
49 173 12 3 22 10 22 14 0 10 95 4 117 -8z m-479 -7 c2 -2 5 -57 7 -122 l4
-120 -35 -1 -34 -1 -2 57 c0 31 -2 86 -3 122 -1 38 3 68 9 72 9 6 44 2 54 -7z
m925 -56 c28 -37 54 -68 57 -69 3 0 6 10 6 23 1 101 2 104 36 103 l33 -1 -2
-55 c0 -30 -1 -85 -2 -122 -1 -55 -4 -67 -18 -70 -33 -7 -48 3 -96 69 -27 35
-50 63 -53 61 -2 -2 -5 -31 -7 -63 -4 -58 -4 -59 -36 -61 -32 -3 -32 -2 -31
44 1 26 4 83 7 127 5 76 6 80 29 81 19 2 36 -13 77 -67z m-1372 38 c0 -1 3
-40 5 -87 4 -55 11 -89 20 -96 7 -6 36 -9 64 -8 48 4 50 3 50 -21 0 -14 -6
-25 -12 -26 -7 0 -21 -2 -32 -4 -10 -2 -46 -5 -80 -7 l-61 -3 -11 120 c-6 66
-7 122 -3 125 8 6 59 12 60 7z m1948 -40 c5 -18 25 -76 44 -129 l35 -98 -34 0
c-27 0 -36 5 -43 24 -10 25 -36 36 -87 36 -23 0 -34 -6 -42 -24 -9 -21 -16
-24 -44 -19 -18 3 -34 6 -35 7 -1 1 27 54 63 118 63 113 65 116 99 116 30 0
36 -4 44 -31z m-2396 -7 c3 -3 8 -36 11 -75 5 -59 12 -107 15 -111 1 0 22 2
48 6 59 9 73 4 73 -25 0 -20 -7 -23 -87 -33 -49 -6 -91 -7 -95 -4 -3 4 -9 33
-12 65 -3 31 -9 82 -12 112 -3 30 -3 58 0 63 5 9 51 10 59 2z m2805 -10 c9 0
12 -9 8 -27 -3 -16 -8 -55 -12 -88 -3 -33 -7 -69 -9 -80 -1 -11 -3 -28 -4 -38
-1 -14 -7 -17 -28 -13 -16 2 -32 5 -36 5 -5 1 -5 18 -2 39 4 20 8 53 10 72 15
139 15 142 38 136 12 -3 28 -6 35 -6z m-3146 -49 c2 -33 6 -66 14 -111 3 -19
6 -53 7 -74 2 -37 0 -40 -30 -43 -31 -4 -38 3 -34 29 0 4 -4 31 -9 60 -5 29
-12 76 -15 105 -5 48 -3 52 18 55 42 7 47 5 49 -21z m3533 -5 c11 -3 28 -5 38
-5 10 -1 32 -14 48 -31 26 -26 29 -35 25 -67 -4 -23 -16 -47 -33 -61 -26 -23
-26 -24 -9 -59 9 -20 15 -37 13 -39 -2 -2 -17 -1 -33 2 -21 4 -36 17 -49 42
-27 50 -52 54 -60 10 -6 -32 -9 -34 -41 -30 -33 4 -34 6 -29 36 3 17 7 45 9
61 7 57 18 130 21 143 4 12 37 11 100 -2z m-3905 -46 c30 -16 41 -50 24 -77
-11 -18 -11 -22 1 -27 24 -9 47 -53 40 -76 -8 -24 -46 -51 -78 -56 -12 -2 -31
-5 -42 -7 -11 -3 -38 -8 -61 -11 l-41 -7 -11 58 c-6 32 -14 74 -17 93 -3 19
-8 47 -11 62 -6 31 -2 34 50 42 22 4 41 8 43 9 8 9 86 6 103 -3z m4365 -34
c11 -2 38 -8 60 -12 22 -4 44 -8 49 -9 5 0 11 -13 13 -29 4 -25 2 -28 -19 -23
-13 3 -44 9 -69 12 -44 6 -46 5 -45 -17 1 -19 9 -24 45 -30 47 -8 63 -22 54
-45 -4 -11 -16 -13 -47 -7 -66 11 -71 10 -74 -13 -3 -18 4 -23 60 -35 58 -12
63 -15 60 -38 -5 -32 -3 -31 -43 -20 -19 5 -47 12 -64 15 -78 14 -90 16 -91
18 -2 1 3 31 11 67 7 36 18 91 25 122 10 50 14 56 33 52 12 -2 31 -6 42 -8z
m-4895 -156 c29 -29 27 -83 -5 -104 -13 -9 -34 -16 -45 -16 -27 0 -70 43 -70
70 0 29 44 70 75 70 14 0 34 -9 45 -20z m5389 -6 c54 -69 -39 -156 -99 -92
-11 12 -20 24 -21 27 0 3 -2 14 -4 23 -2 9 8 29 20 43 32 34 77 34 104 -1z"/>
<path d="M4847 6958 c-10 -8 -21 -32 -24 -53 -4 -34 -1 -44 21 -64 20 -19 32
-22 59 -17 51 10 75 77 42 120 -17 23 -74 31 -98 14z"/>
<path d="M5904 6869 c-18 -36 -8 -49 30 -42 22 5 23 7 13 39 -13 42 -22 43
-43 3z"/>
<path d="M6734 6819 c-3 -6 -3 -13 0 -16 3 -3 1 -14 -4 -24 -17 -31 39 -49 78
-26 14 9 16 36 4 55 -11 16 -70 24 -78 11z"/>
<path d="M2757 6783 c-12 -3 -16 -10 -13 -20 3 -8 6 -21 6 -29 0 -10 6 -11 25
-4 14 5 25 7 25 4 0 -2 9 0 20 6 15 8 18 15 11 28 -9 17 -40 23 -74 15z"/>
<path d="M2806 6693 c-2 -3 -12 -6 -23 -7 -10 -2 -18 -12 -19 -24 -1 -26 21
-49 31 -32 3 6 10 8 15 5 5 -3 20 -1 33 4 24 9 30 31 14 48 -8 8 -45 12 -51 6z"/>
<path d="M1790 6474 c-44 -11 -143 -21 -247 -27 -15 0 -15 1 -2 -57 5 -25 12
-61 14 -80 3 -19 10 -51 15 -70 5 -19 11 -48 14 -64 6 -31 20 -102 41 -206 8
-36 17 -81 20 -100 15 -90 39 -196 47 -205 12 -14 246 -8 354 10 161 26 324
101 428 197 71 65 62 71 -116 74 -217 2 -319 20 -365 63 -16 16 -55 136 -88
280 -3 9 -11 43 -20 76 -8 33 -18 71 -21 85 -8 36 -13 38 -74 24z"/>
<path d="M4627 6473 c-2 -1 -83 -5 -182 -8 -99 -3 -202 -8 -230 -10 -27 -3
-86 -7 -130 -10 -136 -10 -188 -14 -235 -20 -25 -3 -70 -8 -100 -10 -83 -7
-244 -27 -330 -40 -14 -2 -45 -7 -70 -10 -25 -3 -70 -10 -100 -15 -30 -5 -72
-11 -92 -14 -21 -3 -57 -10 -80 -15 -24 -5 -50 -9 -58 -9 -8 0 -26 -3 -40 -6
-14 -3 -50 -11 -80 -17 -30 -6 -59 -12 -65 -14 -5 -1 -26 -5 -46 -9 l-36 -8
-22 -106 c-12 -59 -31 -147 -42 -197 -10 -49 -21 -99 -23 -110 -3 -11 -9 -42
-16 -70 -11 -47 -10 -51 12 -65 134 -84 221 -325 220 -610 0 -115 -30 -372
-62 -545 -5 -27 -12 -70 -15 -95 -3 -25 -7 -56 -9 -70 -2 -14 -7 -45 -10 -70
-3 -25 -9 -67 -12 -95 -4 -27 -8 -63 -9 -80 -24 -284 -27 -348 -22 -490 4 -88
9 -171 12 -185 5 -24 9 -52 20 -124 3 -19 9 -46 15 -60 5 -14 8 -26 5 -26 -8
0 66 -203 97 -264 144 -287 434 -522 1123 -909 94 -52 186 -104 205 -116 19
-11 42 -24 50 -28 107 -50 381 -226 485 -311 84 -69 169 -162 157 -173 -4 -4
-30 -10 -57 -13 -232 -27 -451 -223 -511 -457 -51 -199 13 -436 155 -580 40
-40 131 -104 181 -128 95 -46 257 -67 370 -48 208 36 406 206 469 404 29 90
39 161 34 236 -20 314 -278 568 -590 580 -29 1 -29 8 1 27 13 8 138 92 277
185 140 94 263 175 274 181 11 6 74 44 140 84 66 41 138 83 160 95 22 12 69
38 105 57 36 20 130 69 210 110 500 254 830 591 980 999 17 44 32 90 34 102 3
12 12 58 22 102 13 60 18 126 17 265 0 102 -2 205 -6 230 -3 25 -9 72 -12 105
-8 66 -12 100 -20 160 -4 22 -6 47 -7 55 0 8 -4 33 -8 55 -5 22 -12 60 -16 85
-3 25 -8 54 -10 65 -2 11 -6 38 -9 60 -3 22 -7 50 -10 62 -3 12 -8 46 -11 75
-3 29 -9 78 -15 108 -21 126 -29 411 -15 529 21 165 82 298 193 421 l49 55
-23 115 c-12 63 -24 124 -27 135 -2 11 -14 66 -26 123 -12 57 -22 113 -23 124
-3 35 -42 49 -237 82 -14 2 -63 11 -110 19 -47 9 -107 18 -135 22 -27 3 -57 8
-65 10 -8 2 -42 7 -74 10 -61 6 -69 7 -196 25 -41 6 -106 13 -145 15 -38 3
-81 7 -95 10 -26 5 -130 15 -215 20 -142 10 -235 16 -280 20 -155 13 -999 28
-1008 18z m843 -127 c74 -3 191 -10 260 -16 69 -6 157 -12 195 -15 88 -6 159
-13 210 -19 22 -3 72 -8 110 -12 85 -8 110 -11 110 -13 0 -1 25 -4 55 -7 51
-4 304 -39 360 -50 14 -2 43 -7 65 -9 22 -3 47 -8 55 -10 8 -2 29 -7 45 -9 63
-11 139 -26 141 -29 1 -2 17 -72 49 -224 3 -13 7 -33 10 -45 26 -123 27 -136
6 -150 -23 -16 -121 -157 -121 -174 0 -7 -3 -14 -7 -16 -20 -8 -74 -194 -90
-313 -12 -84 -6 -333 10 -455 9 -63 19 -137 22 -164 3 -27 8 -59 10 -70 3 -12
7 -37 10 -56 7 -53 13 -91 29 -192 14 -84 29 -193 43 -303 28 -238 26 -495 -7
-625 -82 -330 -276 -606 -590 -841 -166 -124 -208 -150 -470 -283 -254 -128
-528 -294 -868 -523 -141 -95 -182 -117 -182 -94 0 16 -155 142 -265 215 -95
64 -158 101 -360 216 -22 13 -94 53 -160 90 -210 117 -390 222 -406 236 -8 8
-18 14 -22 14 -3 0 -45 26 -93 57 -47 32 -103 69 -123 82 -36 25 -176 129
-221 166 -115 95 -213 212 -275 329 -43 81 -100 249 -110 321 -3 28 -11 70
-17 95 -16 68 -18 455 -2 600 7 69 16 154 19 190 4 36 10 85 15 110 4 25 8 52
8 60 0 8 3 26 6 40 3 13 8 42 11 65 6 47 16 113 20 135 2 8 6 38 9 65 11 84
18 139 22 160 5 22 17 228 16 260 0 11 -3 49 -6 85 -4 36 -7 72 -7 80 -1 8 -5
33 -10 55 -4 22 -10 51 -12 65 -19 100 -107 274 -168 331 l-29 27 21 93 c11
51 22 95 23 98 2 3 7 22 10 41 17 112 28 141 54 151 14 5 37 11 51 13 25 3
116 20 171 31 14 3 43 8 64 10 22 3 58 10 80 15 23 5 67 12 99 15 32 4 68 8
80 11 12 2 42 6 67 9 25 3 59 8 75 10 17 2 57 7 90 10 33 3 67 8 75 10 13 3
91 11 210 20 177 12 230 17 260 20 19 3 100 7 179 10 79 3 145 6 147 8 5 5
804 -1 944 -7z m-520 -5012 c0 -28 -21 -54 -43 -54 -19 0 -17 17 7 53 23 34
36 35 36 1z m-80 -89 c0 -6 -9 -11 -20 -12 -22 -2 -37 35 -26 64 6 14 10 12
26 -12 11 -17 20 -35 20 -40z m182 41 c3 -13 -1 -31 -7 -40 -16 -21 -26 -21
-18 2 5 14 3 13 -10 -3 -22 -27 -22 -1 0 36 21 35 29 36 35 5z m-268 -12 c4
-15 5 -29 1 -32 -3 -3 -5 0 -5 7 0 7 -4 10 -9 6 -13 -8 -22 10 -15 29 9 24 21
19 28 -10z m326 6 c0 -20 -25 -38 -36 -27 -7 6 18 47 28 47 5 0 8 -9 8 -20z
m-140 -54 c0 -37 -30 -72 -55 -63 -22 9 -19 29 13 69 31 41 42 40 42 -6z
m-219 -38 c9 -16 8 -22 -2 -29 -19 -11 -49 18 -49 48 0 21 3 22 20 13 11 -6
25 -20 31 -32z m92 1 c26 -21 37 -38 37 -57 l0 -27 -20 30 c-11 17 -20 25 -20
18 0 -6 5 -15 10 -18 21 -13 9 -24 -14 -13 -27 12 -36 28 -42 71 -5 35 3 34
49 -4z m227 1 c0 -20 -9 -39 -26 -55 -27 -25 -68 -30 -59 -7 3 7 5 19 5 26 0
10 61 62 78 65 1 1 2 -13 2 -29z m105 1 c-7 -24 -45 -49 -45 -31 0 6 -4 8 -10
5 -5 -3 -10 -1 -10 5 0 11 61 52 68 45 2 -2 1 -13 -3 -24z m-453 -86 c4 -5 8
-19 8 -30 -1 -19 -2 -19 -20 4 -11 13 -20 18 -20 13 0 -6 5 -14 10 -17 25 -16
7 -24 -19 -9 -18 11 -31 29 -35 47 -11 56 -8 60 32 30 20 -15 40 -32 44 -38z
m503 12 c-6 -23 -45 -69 -45 -53 0 4 -9 2 -20 -4 -14 -8 -20 -8 -20 0 0 6 7
13 15 16 8 4 15 11 15 17 0 6 -11 0 -25 -13 -27 -25 -32 -21 -14 11 9 18 88
61 97 54 2 -1 0 -14 -3 -28z m-278 -21 c-4 -9 -13 -16 -22 -16 -18 0 -19 4 -3
30 14 22 34 10 25 -14z m-132 -6 c15 0 45 -43 45 -64 -1 -20 -2 -20 -14 -3
-20 26 -29 20 -10 -8 25 -39 8 -32 -47 18 -12 11 -19 30 -19 54 0 34 1 35 18
20 10 -10 22 -17 27 -17z m281 -3 c-10 -64 -21 -75 -73 -82 -20 -3 -22 0 -17
23 4 15 8 28 9 30 4 5 80 61 83 62 2 0 1 -15 -2 -33z m-132 -88 c-1 -13 -4
-32 -8 -41 -7 -15 -4 -16 26 -8 18 5 62 21 97 35 36 14 67 23 69 20 3 -2 -24
-18 -59 -35 -115 -54 -135 -89 -106 -176 13 -37 12 -55 -8 -154 -8 -43 19 -83
72 -105 47 -20 79 -19 111 3 36 24 76 27 92 6 12 -14 12 -18 -5 -30 -10 -8
-27 -14 -36 -14 -10 0 -26 -11 -37 -24 -10 -13 -35 -31 -56 -40 -35 -15 -40
-14 -76 4 -22 11 -45 30 -51 42 -10 19 -12 20 -21 4 -5 -10 -7 -20 -4 -23 7
-7 -35 -40 -54 -43 -35 -5 -50 1 -50 20 0 20 39 38 58 26 5 -3 15 1 22 9 14
17 5 129 -10 120 -5 -3 -8 -13 -8 -23 2 -25 -60 -111 -94 -132 -39 -23 -98 -9
-133 31 -13 16 -33 29 -44 29 -30 0 -55 29 -40 46 17 20 62 17 92 -6 32 -25
70 -25 123 0 42 21 76 69 70 100 -16 84 -16 111 -3 162 14 52 13 59 -3 86 -10
16 -51 48 -94 73 -42 24 -76 47 -76 51 0 4 33 -8 73 -27 39 -18 83 -36 96 -40
22 -7 23 -5 17 36 -8 54 7 76 38 55 12 -8 21 -24 20 -37z m-290 35 c24 -9 7
-34 -24 -34 -34 0 -60 26 -33 33 28 7 40 7 57 1z m585 -10 c8 -8 -21 -24 -46
-24 -17 0 -23 6 -23 21 0 19 4 21 32 15 17 -3 34 -9 37 -12z m-544 -56 c26
-12 29 -17 17 -33 -17 -24 -77 -22 -105 3 -19 17 -18 17 19 29 22 6 40 12 41
12 1 1 14 -4 28 -11z m529 -8 c16 -6 16 -8 -9 -24 -31 -20 -81 -24 -97 -8 -9
9 -6 12 13 13 13 1 28 1 32 0 5 -1 6 3 3 7 -3 5 -17 7 -31 4 -31 -5 -33 6 -2
17 21 9 50 6 91 -9z m-415 -76 c-14 -17 -33 -18 -62 -2 -21 11 -21 12 13 23
41 14 68 2 49 -21z m281 6 c0 -11 -45 -21 -64 -14 -19 7 -21 31 -3 37 15 5 67
-12 67 -23z m-466 11 c17 -7 17 -8 2 -24 -14 -13 -21 -14 -41 -5 -29 13 -32
25 -7 31 24 6 25 6 46 -2z m630 0 c15 -1 16 -4 6 -16 -16 -19 -70 -20 -70 -2
0 19 9 26 28 22 9 -2 25 -4 36 -4z m-528 -46 c12 -9 14 -14 6 -15 -7 0 -11 -4
-7 -9 9 -16 -35 -23 -66 -11 -37 16 -37 25 4 38 44 14 41 14 63 -3z m453 -28
c-19 -15 -43 -18 -89 -8 -3 1 2 6 10 11 12 8 12 10 -5 10 -18 1 -18 2 3 14 18
10 33 10 64 2 l40 -11 -23 -18z m-145 -19 c30 -42 14 -52 -25 -17 -20 17 -21
20 -5 15 16 -6 17 -4 6 9 -8 9 -8 15 -2 15 6 0 18 -10 26 -22z m-204 -5 c0
-14 -31 -33 -55 -33 -15 0 -15 1 -1 16 9 8 16 19 16 24 0 5 9 8 20 7 11 -1 20
-7 20 -14z"/>
<path d="M4556 6273 c-1 -1 -72 -5 -157 -8 -84 -3 -170 -7 -189 -10 -19 -2
-71 -7 -115 -10 -148 -12 -208 -18 -340 -35 -44 -6 -98 -13 -120 -16 -45 -6
-73 -10 -130 -18 -22 -4 -58 -9 -80 -12 -59 -8 -74 -10 -140 -22 -33 -6 -73
-13 -90 -16 -16 -2 -55 -9 -85 -16 -30 -6 -68 -13 -85 -16 -16 -3 -37 -7 -45
-9 -8 -2 -23 -4 -32 -4 -14 -1 -23 -19 -34 -76 -1 -5 -7 -35 -13 -65 -6 -30
-13 -64 -15 -75 -2 -11 -7 -27 -10 -36 -4 -10 6 -26 28 -47 145 -132 215 -623
161 -1127 -3 -27 -7 -70 -10 -95 -10 -95 -30 -231 -57 -375 -6 -33 -12 -69
-13 -80 -2 -11 -6 -33 -9 -50 -33 -171 -38 -406 -12 -555 31 -176 95 -340 186
-476 59 -88 76 -108 167 -198 101 -100 117 -114 223 -193 119 -88 529 -353
546 -353 3 0 24 -13 47 -29 45 -30 657 -395 742 -442 l51 -28 -2 722 c-2 1181
-16 3752 -20 3756 -4 4 -77 8 -272 14 -41 1 -75 1 -76 0z m-616 -868 c1 -38 1
-306 1 -594 -1 -288 1 -522 3 -520 2 2 13 31 25 64 11 33 41 121 66 195 26 74
48 142 50 150 2 8 15 47 29 85 l25 70 211 3 c239 3 217 13 185 -93 -72 -244
-176 -414 -285 -469 -44 -23 -50 -23 -385 -22 l-340 1 -22 -25 c-28 -31 -28
-31 2 -60 l26 -24 337 -1 c317 0 339 -1 367 -20 45 -29 103 -94 139 -155 34
-58 108 -225 121 -275 5 -16 9 -32 10 -35 1 -3 13 -42 28 -87 25 -79 79 -301
91 -373 3 -19 12 -65 19 -103 l15 -67 -32 4 c-25 4 -254 15 -383 19 -33 0 -33
0 -47 72 -5 26 -59 242 -91 365 -32 124 -114 458 -120 490 -8 42 -33 132 -39
137 -3 3 -5 -234 -5 -527 0 -293 -2 -534 -5 -537 -8 -9 -118 28 -155 52 -86
55 -164 166 -205 294 -44 138 -48 172 -50 431 l-1 195 -85 65 c-153 116 -147
110 -129 121 9 5 38 28 64 51 26 24 57 50 69 58 12 8 34 27 51 42 l30 27 1
258 c2 277 5 319 30 421 46 189 183 356 308 378 17 3 31 6 33 7 1 2 11 3 23 3
18 0 20 -7 20 -71z"/>
<path d="M5175 6270 c-22 -3 -64 -5 -92 -5 l-53 1 -1 -40 c-2 -77 -9 -1403
-15 -2925 l-6 -1524 34 20 c26 16 208 124 390 232 15 9 69 40 120 70 146 86
627 385 720 447 215 147 394 309 489 444 39 56 128 210 129 225 1 2 8 21 16
40 50 120 79 295 79 475 0 101 -13 288 -21 301 -4 8 -50 270 -59 339 -3 19 -7
46 -9 60 -3 14 -8 50 -11 80 -3 30 -7 66 -10 80 -19 95 -26 556 -12 700 7 65
16 116 42 240 20 92 85 220 134 264 22 20 22 23 6 91 -2 11 -12 58 -22 105
l-18 85 -110 22 c-60 12 -129 24 -153 28 -24 3 -66 10 -95 16 -29 6 -65 12
-82 14 -41 6 -87 13 -175 26 -80 12 -80 12 -180 24 -36 4 -74 9 -85 11 -11 2
-49 7 -85 10 -36 4 -76 7 -90 9 -14 1 -61 6 -105 9 -44 4 -100 9 -125 11 -47
5 -326 16 -440 19 -36 0 -83 -1 -105 -4z m626 -677 c1 -5 2 -87 3 -183 2 -96
4 -178 5 -181 1 -4 73 -4 101 0 3 1 5 79 5 174 -1 94 0 177 3 184 2 8 33 11
99 10 l95 -2 -1 -185 -1 -185 90 -22 c231 -56 349 -175 366 -371 11 -126 -31
-266 -105 -344 -17 -18 -31 -36 -31 -39 0 -3 12 -11 27 -18 82 -37 154 -130
183 -234 24 -85 24 -266 0 -357 -42 -163 -142 -271 -290 -314 -47 -14 -150
-28 -200 -29 -32 0 -35 -17 -34 -196 l0 -181 -96 0 -95 0 0 181 c0 110 -4 183
-10 187 -5 4 -31 7 -57 8 l-48 0 0 -188 0 -188 -98 0 -99 0 0 168 c-1 92 -2
176 -2 188 -1 19 -6 20 -168 19 -93 -1 -173 0 -178 2 -12 4 -14 237 -2 249 4
4 41 8 82 9 63 1 79 4 97 23 l22 22 0 571 c0 556 0 571 -19 582 -27 15 -38 17
-125 20 l-75 2 0 125 0 125 180 0 180 0 2 170 c1 94 2 178 3 188 0 15 11 17
95 17 52 0 95 -3 96 -7z"/>
<path d="M5809 4956 c-1 0 -2 -99 -3 -218 -1 -186 1 -217 14 -220 8 -2 67 -3
130 -3 135 2 164 13 210 85 55 86 57 194 6 272 -36 56 -149 90 -285 87 -39 -1
-71 -2 -72 -3z"/>
<path d="M5809 4261 c-6 -28 -4 -460 2 -472 6 -12 20 -15 56 -13 26 2 93 5
149 8 115 5 162 23 216 82 71 78 87 182 42 273 -46 92 -126 123 -331 126 -73
1 -134 -1 -134 -4z"/>
<path d="M4925 1189 c-4 -6 -5 -12 -2 -15 2 -3 7 2 10 11 7 17 1 20 -8 4z"/>
<path d="M5005 1139 c-4 -6 -5 -12 -2 -15 2 -3 7 2 10 11 7 17 1 20 -8 4z"/>
<path d="M8079 6468 c0 -2 -2 -10 -4 -18 -5 -27 -76 -304 -96 -375 -27 -100
-63 -122 -234 -141 -16 -1 -91 -4 -165 -5 -143 -2 -160 -4 -160 -23 0 -18 67
-79 130 -119 166 -104 320 -144 560 -143 l134 1 12 43 c12 39 19 74 28 127 2
11 8 45 14 75 6 30 14 66 16 80 3 14 17 84 32 155 14 72 28 141 30 155 2 14 9
52 17 86 10 43 11 61 3 62 -6 1 -36 4 -66 6 -120 10 -162 16 -198 26 -37 10
-51 12 -53 8z"/>
<path d="M2555 6213 c-27 -7 -59 -15 -70 -17 -144 -30 -340 -98 -349 -121 -11
-30 20 -35 279 -45 28 -1 77 -1 110 -1 l61 1 13 63 c7 34 17 75 22 91 16 50
14 50 -66 29z"/>
<path d="M7310 6202 c0 -17 38 -170 45 -182 6 -10 328 -6 383 5 67 13 81 32
40 53 -54 27 -192 71 -271 87 -10 2 -27 7 -37 10 -10 3 -28 8 -39 10 -12 3
-29 7 -38 9 -63 16 -83 18 -83 8z"/>
<path d="M2295 5064 c-84 -95 -145 -185 -196 -289 -118 -243 -124 -469 -19
-692 22 -46 41 -83 44 -83 9 0 66 118 102 211 39 102 100 321 109 394 3 28 10
75 14 105 10 59 12 97 12 230 1 117 -3 180 -11 180 -3 0 -28 -25 -55 -56z"/>
<path d="M7577 5101 c-12 -46 2 -380 19 -471 10 -55 14 -73 19 -105 2 -16 18
-75 35 -130 17 -55 32 -107 34 -115 19 -68 114 -280 126 -280 19 0 117 251
105 271 -3 4 -1 10 4 14 10 6 8 223 -2 260 -3 11 -11 43 -17 70 -14 57 -79
201 -110 245 -12 17 -19 30 -16 30 3 0 -3 10 -13 23 -11 12 -46 56 -79 97 -33
41 -69 83 -80 93 -19 17 -20 17 -25 -2z"/>
<path d="M2506 4613 c-118 -187 -236 -479 -262 -648 -27 -177 -27 -410 1 -560
19 -100 81 -282 109 -320 12 -17 16 -14 51 40 98 153 187 398 209 575 4 25 9
63 13 85 11 73 5 540 -7 540 -1 0 -3 18 -6 40 -3 34 -13 85 -40 210 -2 11 -7
35 -10 53 -3 18 -10 34 -14 37 -5 3 -25 -21 -44 -52z"/>
<path d="M7379 4664 c-1 -12 -4 -26 -23 -114 -22 -101 -26 -118 -31 -165 -3
-22 -8 -57 -11 -77 -6 -39 -15 -196 -16 -283 -2 -124 12 -259 46 -440 25 -137
123 -373 197 -475 l32 -44 17 35 c17 32 90 233 89 244 0 3 4 29 10 58 22 105
30 352 16 467 -11 90 -41 215 -79 333 -53 164 -242 516 -247 461z"/>
<path d="M1821 4359 c-67 -178 -78 -405 -26 -582 47 -164 131 -297 266 -424
44 -41 111 -92 122 -93 11 0 9 208 -3 273 -6 31 -12 69 -15 84 -2 15 -8 40
-13 54 -6 15 -9 29 -6 31 2 3 -2 24 -10 47 -9 23 -15 45 -16 49 -1 19 -47 147
-85 233 -39 89 -141 272 -185 329 l-19 25 -10 -26z"/>
<path d="M8088 4363 c-31 -37 -128 -204 -172 -296 -72 -153 -153 -422 -162
-540 -1 -23 -4 -44 -5 -47 -1 -3 -2 -53 -3 -112 -1 -102 0 -107 18 -102 39 13
176 147 243 238 67 90 135 239 145 316 2 14 6 30 10 35 8 13 3 311 -6 355 -9
41 -47 170 -50 170 -2 0 -10 -8 -18 -17z"/>
<path d="M2612 3367 c-14 -16 -42 -82 -48 -111 -17 -77 -21 -220 -9 -311 3
-27 6 -57 7 -65 1 -37 40 -165 68 -226 63 -137 182 -280 302 -362 26 -18 49
-32 51 -32 5 0 2 57 -10 170 -9 94 -16 136 -34 205 -6 22 -13 49 -15 60 -18
94 -265 674 -290 682 -6 2 -16 -2 -22 -10z"/>
<path d="M7267 3323 c-14 -32 -57 -128 -95 -214 -98 -217 -160 -389 -181 -494
-1 -3 -1 -6 -2 -7 0 -2 -2 -14 -5 -28 -2 -14 -9 -50 -15 -80 -6 -30 -13 -96
-15 -147 -3 -90 -2 -93 17 -83 32 18 129 100 176 149 92 97 192 278 207 376 4
21 8 40 10 44 20 34 28 311 11 388 -19 93 -49 152 -76 153 -4 0 -18 -26 -32
-57z"/>
<path d="M1914 3249 c-3 -5 -3 -13 0 -17 3 -5 7 -30 11 -58 15 -129 73 -296
136 -395 117 -183 318 -310 527 -333 38 -5 38 -12 -10 124 -51 141 -119 267
-194 360 -52 63 -158 166 -211 203 -90 63 -248 134 -259 116z"/>
<path d="M7920 3222 c-96 -41 -197 -112 -278 -194 -93 -95 -132 -140 -132
-155 0 -6 -4 -13 -8 -15 -23 -10 -154 -278 -153 -313 0 -2 -6 -20 -14 -39 -25
-60 -22 -64 45 -54 120 16 259 84 374 183 79 68 182 234 211 340 4 17 10 35
11 40 8 24 32 144 39 188 8 58 0 59 -95 19z"/>
<path d="M3051 2444 c11 -265 176 -539 420 -697 83 -54 261 -147 329 -173 19
-7 60 -22 90 -33 30 -12 60 -21 67 -21 12 0 -23 109 -69 210 -46 103 -138 243
-213 326 -159 175 -318 296 -520 394 -49 24 -94 45 -98 48 -5 2 -7 -22 -6 -54z"/>
<path d="M6825 2472 c-392 -177 -697 -495 -825 -859 -17 -47 -30 -87 -30 -90
0 -17 193 59 335 132 325 168 494 371 565 682 10 44 22 164 17 163 -1 0 -29
-13 -62 -28z"/>
<path d="M2225 2440 c-2 -4 13 -44 35 -88 123 -254 322 -411 608 -477 101 -24
245 -34 297 -21 11 2 23 5 27 5 13 1 -81 122 -141 182 -109 108 -200 172 -356
250 -86 43 -289 116 -348 126 -16 2 -49 10 -73 18 -24 7 -46 10 -49 5z"/>
<path d="M7620 2424 c-47 -12 -85 -22 -85 -22 0 0 -20 -5 -45 -12 -25 -6 -89
-30 -143 -52 -243 -99 -426 -232 -556 -403 -53 -71 -61 -88 -36 -79 8 4 21 2
28 -3 24 -18 202 0 332 33 79 20 229 92 296 141 67 50 161 150 207 222 41 64
95 177 90 189 -1 4 -41 -2 -88 -14z"/>
<path d="M3926 1891 c6 -67 41 -173 81 -240 37 -65 156 -179 238 -228 39 -23
105 -57 148 -74 l78 -32 27 25 c15 14 49 40 75 57 55 37 55 36 -2 119 -78 115
-243 249 -411 334 -74 37 -218 98 -232 98 -4 0 -5 -27 -2 -59z"/>
<path d="M5975 1940 c-39 -16 -80 -31 -83 -31 -8 3 -218 -113 -281 -154 -121
-80 -278 -253 -305 -335 -3 -10 18 -33 57 -64 l61 -50 79 28 c259 92 439 268
491 481 31 127 28 145 -19 125z"/>
<path d="M2778 1775 c-2 -2 -36 -6 -77 -10 -124 -11 -124 -12 -4 -93 213 -142
419 -226 613 -250 68 -9 199 -8 265 0 64 9 152 36 160 48 4 6 11 7 17 4 6 -4
9 -2 7 4 -7 21 -122 101 -209 146 -135 70 -266 112 -445 142 -40 6 -322 14
-327 9z"/>
<path d="M6908 1775 c-2 -2 -30 -6 -62 -9 -33 -4 -78 -11 -100 -16 -23 -5 -52
-11 -66 -14 -95 -18 -281 -96 -369 -154 -72 -47 -131 -93 -131 -103 0 -7 72
-34 121 -45 108 -24 217 -27 353 -9 185 24 494 165 658 301 l28 22 -28 6 c-65
14 -116 18 -254 21 -81 1 -148 1 -150 0z"/>
<path d="M3888 1394 c-2 -1 -30 -5 -63 -9 -33 -3 -77 -10 -100 -16 -22 -6 -51
-13 -64 -15 -71 -13 -301 -125 -301 -146 0 -15 155 -78 231 -94 41 -8 173 -31
189 -32 8 -1 35 -3 60 -6 58 -5 309 -6 378 -2 83 6 97 12 116 53 10 21 31 57
47 81 16 24 29 47 29 51 0 18 -168 85 -274 110 -69 17 -240 34 -248 25z"/>
<path d="M5957 1394 c-1 -1 -29 -5 -62 -8 -33 -4 -78 -12 -100 -18 -22 -5 -47
-12 -55 -13 -60 -13 -250 -102 -250 -117 0 -8 64 -131 76 -147 2 -2 20 -5 41
-6 21 -2 81 -6 133 -10 183 -14 414 -2 540 26 25 6 52 12 61 14 44 9 126 37
180 61 l61 28 -23 19 c-82 66 -303 147 -449 163 -53 6 -149 11 -153 8z"/>
<path d="M4244 1014 c-5 -2 -34 -5 -64 -7 -30 -3 -66 -8 -80 -12 -14 -3 -34
-7 -45 -9 -66 -9 -223 -84 -285 -135 -39 -33 -38 -37 5 -45 17 -3 41 -8 55
-11 83 -16 341 -28 406 -18 l31 5 6 96 c3 54 9 107 12 119 7 21 -5 26 -41 17z"/>
<path d="M5594 1009 c-3 -5 -2 -19 1 -30 9 -27 17 -103 17 -151 0 -36 1 -37
46 -44 117 -19 410 -5 516 24 l29 8 -44 36 c-125 101 -277 151 -496 163 -35 2
-65 -1 -69 -6z"/>
</g>
</svg>
